<?xml version="1.0" standalone="no"?>
<!DOCTYPE svg PUBLIC "-//W3C//DTD SVG 20010904//EN"
 "http://www.w3.org/TR/2001/REC-SVG-20010904/DTD/svg10.dtd">
<svg version="1.0" xmlns="http://www.w3.org/2000/svg"
 width="300.000000pt" height="300.000000pt" viewBox="0 0 300.000000 300.000000"
 preserveAspectRatio="xMidYMid meet">
<metadata>
Created by potrace 1.10, written by Peter Selinger 2001-2011
</metadata>
<g transform="translate(0.000000,300.000000) scale(0.100000,-0.100000)"
fill="#000000" stroke="none">
<path d="M918 2380 c-189 -32 -306 -232 -244 -417 22 -66 92 -145 160 -181 44
-23 63 -27 136 -27 73 0 93 4 142 28 65 32 121 90 152 156 32 71 30 199 -6
267 -65 125 -206 196 -340 174z m0 -53 c-10 -7 -35 -24 -57 -39 -139 -98 -154
-293 -32 -421 20 -21 49 -45 64 -54 44 -23 24 -27 -25 -5 -107 47 -168 140
-168 256 0 114 58 202 165 252 55 25 80 30 53 11z m160 -7 l44 -20 -26 -31
c-14 -17 -26 -36 -26 -42 0 -7 18 -34 40 -61 25 -31 42 -63 46 -88 7 -43 37
-78 67 -78 14 0 17 -5 11 -22 -23 -74 -97 -146 -176 -172 -85 -27 -99 -23
-165 45 -79 82 -102 128 -103 207 0 82 15 115 89 197 34 37 61 71 61 76 0 16
94 9 138 -11z m107 -82 c52 -41 69 -120 39 -184 -20 -42 -32 -44 -26 -4 6 45
-24 116 -65 149 l-35 29 23 16 c30 20 31 20 64 -6z"/>
<path d="M2098 2320 c-78 -42 -128 -142 -113 -229 23 -134 178 -218 301 -162
55 25 110 92 124 150 22 92 -28 199 -112 240 -58 27 -148 28 -200 1z m211 -27
c126 -78 118 -264 -14 -341 -33 -19 -52 -22 -106 -20 -75 4 -120 28 -160 86
-34 50 -39 144 -10 200 23 44 73 88 118 102 47 15 123 3 172 -27z"/>
<path d="M2125 2296 c-60 -27 -115 -110 -115 -173 1 -63 62 -149 123 -172 47
-18 66 -13 32 8 -72 43 -113 126 -100 203 8 46 63 114 110 134 29 13 29 13 5
13 -14 0 -38 -6 -55 -13z"/>
<path d="M2297 2246 c-16 -13 -15 -16 19 -50 33 -33 36 -41 31 -76 -6 -50 5
-51 28 -5 20 43 13 83 -20 119 -27 30 -33 31 -58 12z"/>
<path d="M1510 2157 c-42 -15 -81 -68 -79 -111 2 -27 2 -27 6 -6 13 79 45 109
116 106 34 -1 52 -7 67 -24 11 -12 15 -18 9 -13 -6 5 -17 7 -25 4 -10 -4 -8
-11 8 -33 12 -17 18 -36 14 -47 -4 -13 -1 -12 14 6 11 13 20 20 20 17 0 -18
-30 -73 -48 -89 -20 -18 -97 -33 -87 -17 3 4 -3 14 -12 21 -23 20 -41 67 -35
95 2 13 16 35 29 49 19 18 22 25 10 25 -8 0 -27 -14 -41 -31 -34 -40 -34 -87
0 -131 l26 -33 -31 33 c-30 31 -43 33 -18 2 43 -55 117 -66 166 -25 44 37 56
82 36 133 -26 64 -82 90 -145 69z"/>
<path d="M1779 1881 c-24 -24 -39 -48 -39 -63 0 -24 -4 -26 -67 -30 -114 -8
-209 -73 -260 -176 -23 -48 -28 -70 -28 -137 0 -67 4 -89 28 -137 31 -62 84
-116 149 -149 51 -26 164 -36 223 -20 142 38 248 194 230 337 -8 67 -54 161
-75 154 -8 -3 -41 -5 -73 -5 -55 0 -61 2 -93 37 -19 21 -34 43 -34 50 0 7 9
-1 20 -19 10 -17 28 -37 39 -42 32 -18 36 -12 6 11 -36 28 -56 78 -49 118 7
33 57 90 79 90 7 0 -2 -15 -21 -34 -26 -26 -34 -42 -34 -70 0 -45 17 -82 47
-101 13 -9 21 -20 18 -25 -10 -17 48 -11 91 9 34 15 45 28 60 66 16 43 16 51
3 88 -19 56 -66 87 -132 87 -44 0 -53 -4 -88 -39z m139 -67 l33 -66 -23 -34
c-13 -19 -31 -34 -40 -34 -23 0 -68 68 -68 103 0 45 31 94 60 96 3 0 20 -29
38 -65z m59 25 c12 -24 8 -69 -6 -69 -3 0 -7 12 -8 27 0 15 -10 35 -22 44 -11
9 -17 19 -14 23 13 13 38 0 50 -25z m-242 -133 c40 -49 108 -82 148 -72 34 8
61 -15 54 -45 -3 -13 -12 -51 -19 -85 -38 -168 -159 -248 -321 -212 -42 10
-70 12 -74 5 -8 -13 12 -24 76 -43 177 -53 350 79 351 265 0 78 16 72 26 -10
10 -88 -15 -160 -79 -224 -80 -79 -167 -102 -271 -71 -52 16 -128 64 -121 76
3 4 -3 10 -14 13 -22 5 -58 79 -63 127 l-3 35 42 -3 c37 -3 43 -1 56 25 8 15
18 43 22 61 4 18 24 53 46 78 44 51 44 52 23 82 -12 18 -13 23 -2 26 7 3 20 7
28 9 40 14 60 6 95 -37z m-162 -45 c-43 -31 -73 -90 -73 -141 0 -34 1 -34 -34
-20 -22 8 -26 16 -26 47 0 73 68 143 139 143 l34 0 -40 -29z"/>
<path d="M770 1613 c-61 -22 -79 -95 -35 -138 52 -53 135 -18 135 56 0 51 -57
97 -100 82z m64 -22 c4 -5 0 -12 -6 -15 -10 -5 -10 -7 0 -12 6 -3 12 -17 12
-30 0 -14 4 -22 10 -19 6 3 10 2 10 -4 0 -16 -42 -51 -61 -51 -22 0 -59 46
-59 72 0 40 76 88 94 59z"/>
<path d="M692 1333 c-78 -38 -85 -170 -9 -180 31 -4 45 13 17 22 -11 4 -24 20
-29 38 l-8 32 -11 -25 -11 -25 0 30 c-1 40 32 93 63 101 14 3 37 -1 54 -10 71
-37 82 -104 28 -163 l-34 -37 -40 16 -40 16 -34 -66 c-30 -60 -33 -74 -33
-152 0 -73 4 -93 28 -141 90 -184 314 -243 483 -126 165 114 186 355 44 497
-62 62 -139 94 -225 95 -38 0 -73 5 -77 10 -5 7 -8 7 -8 0 0 -23 19 -30 80
-31 82 0 128 -16 189 -64 72 -57 114 -146 114 -241 0 -60 -5 -80 -34 -137
-100 -196 -354 -226 -504 -60 -81 90 -96 213 -42 331 l26 58 44 -6 c52 -8 95
10 122 51 15 23 16 32 5 66 -6 22 -9 42 -6 45 11 11 -14 41 -48 57 -42 20 -62
20 -104 -1z"/>
<path d="M2073 1274 c-32 -16 -64 -67 -62 -101 1 -13 3 -12 10 7 7 21 8 18 4
-13 -2 -25 0 -35 7 -31 7 4 8 2 4 -5 -10 -16 13 -43 31 -37 8 3 11 2 8 -3 -3
-5 4 -12 15 -16 17 -5 19 -12 13 -50 -8 -64 4 -111 40 -152 67 -77 185 -86
255 -20 58 53 76 134 47 204 -31 74 -98 117 -171 111 -32 -2 -44 1 -44 10 0
33 -35 85 -66 98 -42 18 -51 17 -91 -2z m103 -19 c17 -13 17 -14 2 -15 -22 0
-23 -7 -3 -26 8 -9 15 -25 15 -37 1 -22 1 -22 15 -3 13 17 15 17 15 3 0 -9
-10 -22 -22 -28 -31 -16 -68 -50 -68 -63 0 -5 15 5 33 22 18 18 48 37 67 42
67 19 153 -13 189 -70 l15 -25 -26 23 c-22 20 -29 22 -46 11 -19 -12 -19 -13
9 -37 23 -19 29 -32 29 -65 1 -39 2 -41 15 -23 8 11 15 36 16 55 l1 36 10 -31
c24 -73 -38 -171 -122 -194 -81 -22 -154 12 -191 86 -21 45 -23 101 -4 147 5
12 2 17 -10 17 -9 0 -14 4 -11 9 3 5 -1 12 -10 15 -8 3 -22 22 -30 42 -19 45
-7 81 34 107 34 21 53 21 78 2z"/>
<path d="M2204 1121 c-44 -27 -71 -65 -79 -112 -10 -56 26 -126 80 -156 52
-29 76 -29 39 -1 -44 35 -62 59 -73 104 -18 68 7 124 74 165 25 16 26 19 10
19 -11 0 -34 -9 -51 -19z"/>
<path d="M965 1192 c214 -126 228 -392 27 -509 -58 -34 -42 -40 34 -12 77 29
145 97 169 168 57 174 -52 349 -235 376 l-45 6 50 -29z"/>
<path d="M1415 1033 c-32 -8 -74 -54 -81 -89 -14 -74 57 -144 131 -130 44 9
85 55 92 104 5 35 1 44 -28 75 -34 35 -75 50 -114 40z m-19 -46 c-35 -35 -36
-94 -1 -131 13 -14 20 -26 15 -26 -4 0 -20 14 -34 31 -37 43 -35 91 4 131 17
17 33 28 36 25 3 -3 -6 -16 -20 -30z m136 -21 c6 -14 7 -33 3 -43 -6 -15 -9
-12 -17 15 -5 17 -13 32 -18 32 -6 0 -10 5 -10 10 0 20 31 9 42 -14z m-51 -30
c19 -37 21 -47 10 -60 -30 -36 -81 -7 -81 48 0 33 15 56 36 56 6 0 22 -20 35
-44z"/>
<path d="M1714 981 c-46 -28 -64 -59 -64 -111 0 -123 130 -182 217 -98 48 47
61 95 37 144 -37 76 -124 105 -190 65z m12 -35 c-31 -29 -36 -40 -36 -79 0
-38 6 -53 33 -83 22 -26 26 -34 12 -27 -28 16 -52 43 -65 77 -14 39 2 88 41
121 45 37 56 30 15 -9z m103 -60 c37 -69 36 -92 -4 -102 -57 -14 -95 20 -95
85 0 30 34 81 53 81 7 0 27 -29 46 -64z m61 -3 c0 -18 -4 -33 -10 -33 -5 0
-10 11 -10 23 0 13 -9 32 -20 42 -15 14 -17 20 -8 26 20 13 48 -21 48 -58z"/>
<path d="M675 965 c-15 -22 -20 -47 -20 -95 0 -72 20 -111 72 -142 27 -16 29
-16 61 11 l33 27 -37 24 c-58 38 -78 73 -84 143 l-5 61 -20 -29z"/>
<path d="M1892 780 c-26 -42 -12 -82 33 -93 19 -4 19 -5 -1 -6 -23 -1 -49 23
-57 54 -4 12 -5 8 -4 -10 1 -21 10 -34 30 -45 39 -22 81 2 85 49 6 59 -57 97
-86 51z"/>
</g>
</svg>
